<svg width="40" height="25" viewBox="0 0 40 25" fill="none" xmlns="http://www.w3.org/2000/svg">
<path d="M12.7656 12.7188C12.7656 14 12.8177 15.1094 12.9219 16.0469C13.026 16.974 13.1615 17.7656 13.3281 18.4219C13.5052 19.0677 13.7083 19.5938 13.9375 20C14.1771 20.3958 14.4219 20.7083 14.6719 20.9375C14.9219 21.1562 15.1719 21.3073 15.4219 21.3906C15.6823 21.4635 15.9271 21.5 16.1562 21.5C16.4167 21.5 16.651 21.4688 16.8594 21.4062C17.0677 21.3333 17.2552 21.2552 17.4219 21.1719C17.5885 21.0781 17.724 21 17.8281 20.9375C17.9427 20.8646 18.0312 20.8281 18.0938 20.8281C18.1771 20.8281 18.25 20.875 18.3125 20.9688L18.9844 22.0312C19.0156 22.0938 19.0312 22.1458 19.0312 22.1875C19.0312 22.2396 19.0104 22.2865 18.9688 22.3281C18.9271 22.3594 18.8906 22.3906 18.8594 22.4219C18.5365 22.6719 18.125 22.9271 17.625 23.1875C17.125 23.4479 16.5521 23.6823 15.9062 23.8906C15.2708 24.099 14.5677 24.2708 13.7969 24.4062C13.026 24.5417 12.2135 24.6094 11.3594 24.6094C10.5781 24.6094 9.77604 24.5312 8.95312 24.375C8.14062 24.2292 7.34896 23.9792 6.57812 23.625C5.80729 23.2604 5.07812 22.7812 4.39062 22.1875C3.71354 21.5938 3.11979 20.8594 2.60938 19.9844C2.09896 19.099 1.69271 18.0625 1.39062 16.875C1.09896 15.6771 0.953125 14.2917 0.953125 12.7188C0.953125 11.1458 1.09896 9.76562 1.39062 8.57812C1.69271 7.38021 2.09896 6.34375 2.60938 5.46875C3.11979 4.58333 3.71354 3.84375 4.39062 3.25C5.07812 2.65625 5.80729 2.18229 6.57812 1.82812C7.34896 1.46354 8.14062 1.20833 8.95312 1.0625C9.77604 0.90625 10.5781 0.828125 11.3594 0.828125C12.2135 0.828125 13.026 0.895833 13.7969 1.03125C14.5677 1.16667 15.2708 1.33854 15.9062 1.54688C16.5521 1.75521 17.125 1.98958 17.625 2.25C18.125 2.51042 18.5365 2.76562 18.8594 3.01562C18.8906 3.04688 18.9271 3.08333 18.9688 3.125C19.0104 3.15625 19.0312 3.19792 19.0312 3.25C19.0312 3.29167 19.0156 3.34375 18.9844 3.40625L18.3125 4.46875C18.25 4.5625 18.1771 4.60938 18.0938 4.60938C18.0312 4.60938 17.9427 4.57812 17.8281 4.51562C17.724 4.44271 17.5885 4.36458 17.4219 4.28125C17.2552 4.1875 17.0677 4.10938 16.8594 4.04688C16.651 3.97396 16.4167 3.9375 16.1562 3.9375C15.9271 3.9375 15.6823 3.97917 15.4219 4.0625C15.1719 4.13542 14.9219 4.28646 14.6719 4.51562C14.4219 4.73438 14.1771 5.04688 13.9375 5.45312C13.7083 5.84896 13.5052 6.375 13.3281 7.03125C13.1615 7.67708 13.026 8.46875 12.9219 9.40625C12.8177 10.3333 12.7656 11.4375 12.7656 12.7188ZM35.0781 19.75C34.6823 19.9688 34.276 20.151 33.8594 20.2969C33.4531 20.4427 33.0312 20.5625 32.5938 20.6562V21.8281C32.5938 22.1615 32.5573 22.4635 32.4844 22.7344C32.4115 22.9948 32.2812 23.2188 32.0938 23.4062C31.9167 23.5938 31.6771 23.7396 31.375 23.8438C31.0833 23.9479 30.7135 24 30.2656 24H23.3438C22.8438 24 22.4375 23.9531 22.125 23.8594C21.8125 23.7656 21.5677 23.6302 21.3906 23.4531C21.2135 23.276 21.0938 23.0521 21.0312 22.7812C20.9688 22.5104 20.9375 22.1927 20.9375 21.8281V3.75C20.9375 3.38542 20.9688 3.06771 21.0312 2.79688C21.0938 2.52604 21.2135 2.30208 21.3906 2.125C21.5677 1.9375 21.8125 1.79688 22.125 1.70312C22.4375 1.60938 22.8438 1.5625 23.3438 1.5625H30.3125C31.0625 1.5625 31.7969 1.625 32.5156 1.75C33.2448 1.875 33.9323 2.07812 34.5781 2.35938C35.2344 2.63021 35.8333 2.99479 36.375 3.45312C36.9271 3.91146 37.401 4.47917 37.7969 5.15625C38.2031 5.82292 38.5156 6.60417 38.7344 7.5C38.9635 8.39583 39.0781 9.42708 39.0781 10.5938C39.0781 11.5938 39.0156 12.5 38.8906 13.3125C38.7656 14.125 38.5938 14.8594 38.375 15.5156C38.1562 16.1719 37.8906 16.7552 37.5781 17.2656C37.276 17.7656 36.9375 18.2083 36.5625 18.5938L39.6875 22.7188C39.7917 22.8646 39.8438 23.0052 39.8438 23.1406C39.8438 23.2969 39.7865 23.4323 39.6719 23.5469C39.5677 23.6615 39.4531 23.7552 39.3281 23.8281L38.3906 24.375C38.3177 24.4167 38.2396 24.4479 38.1562 24.4688C38.0833 24.5 38.0052 24.5156 37.9219 24.5156C37.8073 24.5156 37.6927 24.4792 37.5781 24.4062C37.4635 24.3333 37.3594 24.2083 37.2656 24.0312L35.0781 19.75ZM36.875 10.875C36.875 9.9375 36.7917 9.07292 36.625 8.28125C36.4583 7.48958 36.2031 6.79167 35.8594 6.1875C35.5156 5.58333 35.0729 5.08333 34.5312 4.6875C33.9896 4.29167 33.3438 4.02083 32.5938 3.875V18.6094C33.3438 18.4427 33.9896 18.1406 34.5312 17.7031C35.0729 17.2552 35.5156 16.6979 35.8594 16.0312C36.2031 15.3646 36.4583 14.599 36.625 13.7344C36.7917 12.8594 36.875 11.9062 36.875 10.875Z" fill="black"/>
</svg>
